<svg xmlns="http://www.w3.org/2000/svg" width="1600" height="1000" viewBox="0 0 1600 1000" role="img" aria-label="AI governance cockpit screenshot">
  <rect width="1600" height="1000" fill="#f8fafc"/>
  <rect x="56" y="48" width="1488" height="904" rx="28" fill="#ffffff" stroke="#cbd5e1"/>
  <text x="96" y="116" font-family="Segoe UI, Arial, sans-serif" font-size="44" font-weight="700" fill="#0f172a">AI Adoption Ledger</text>
  <text x="96" y="164" font-family="Segoe UI, Arial, sans-serif" font-size="24" fill="#475569">Acceptance, overrides, confidence, cost, and review controls for TOPdesk AI assistance.</text>
  <g font-family="Segoe UI, Arial, sans-serif">
    <rect x="96" y="220" width="320" height="150" rx="14" fill="#dbeafe"/>
    <text x="124" y="270" font-size="26" fill="#1e3a8a">Accepted suggestions</text>
    <text x="124" y="330" font-size="54" font-weight="700" fill="#1d4ed8">68%</text>
    <rect x="456" y="220" width="320" height="150" rx="14" fill="#ccfbf1"/>
    <text x="484" y="270" font-size="26" fill="#115e59">Edited before use</text>
    <text x="484" y="330" font-size="54" font-weight="700" fill="#0f766e">21%</text>
    <rect x="816" y="220" width="320" height="150" rx="14" fill="#fef3c7"/>
    <text x="844" y="270" font-size="26" fill="#92400e">Override reviews</text>
    <text x="844" y="330" font-size="54" font-weight="700" fill="#b45309">37</text>
    <rect x="1176" y="220" width="280" height="150" rx="14" fill="#fee2e2"/>
    <text x="1204" y="270" font-size="26" fill="#991b1b">PII blocks</text>
    <text x="1204" y="330" font-size="54" font-weight="700" fill="#dc2626">9</text>
  </g>
  <rect x="96" y="430" width="680" height="380" rx="18" fill="#f8fafc" stroke="#cbd5e1"/>
  <text x="128" y="486" font-family="Segoe UI, Arial, sans-serif" font-size="30" font-weight="700" fill="#0f172a">Suggestion review queue</text>
  <path d="M132 552h580M132 626h580M132 700h580" stroke="#cbd5e1"/>
  <text x="132" y="534" font-family="Segoe UI, Arial, sans-serif" font-size="22" fill="#475569">Type</text>
  <text x="388" y="534" font-family="Segoe UI, Arial, sans-serif" font-size="22" fill="#475569">Outcome</text>
  <text x="564" y="534" font-family="Segoe UI, Arial, sans-serif" font-size="22" fill="#475569">Action</text>
  <text x="132" y="594" font-family="Segoe UI, Arial, sans-serif" font-size="24" fill="#0f172a">Reply draft</text>
  <text x="388" y="594" font-family="Segoe UI, Arial, sans-serif" font-size="24" fill="#0f766e">Accepted</text>
  <text x="564" y="594" font-family="Segoe UI, Arial, sans-serif" font-size="24" fill="#2563eb">Keep</text>
  <text x="132" y="668" font-family="Segoe UI, Arial, sans-serif" font-size="24" fill="#0f172a">Routing</text>
  <text x="388" y="668" font-family="Segoe UI, Arial, sans-serif" font-size="24" fill="#b45309">Edited</text>
  <text x="564" y="668" font-family="Segoe UI, Arial, sans-serif" font-size="24" fill="#2563eb">Review</text>
  <text x="132" y="742" font-family="Segoe UI, Arial, sans-serif" font-size="24" fill="#0f172a">Summary</text>
  <text x="388" y="742" font-family="Segoe UI, Arial, sans-serif" font-size="24" fill="#dc2626">Rejected</text>
  <text x="564" y="742" font-family="Segoe UI, Arial, sans-serif" font-size="24" fill="#2563eb">Eval</text>
  <rect x="836" y="430" width="620" height="380" rx="18" fill="#f8fafc" stroke="#cbd5e1"/>
  <text x="868" y="486" font-family="Segoe UI, Arial, sans-serif" font-size="30" font-weight="700" fill="#0f172a">Governance gates</text>
  <rect x="872" y="540" width="512" height="34" rx="17" fill="#dbeafe"/><rect x="872" y="540" width="382" height="34" rx="17" fill="#2563eb"/>
  <rect x="872" y="628" width="512" height="34" rx="17" fill="#ccfbf1"/><rect x="872" y="628" width="430" height="34" rx="17" fill="#14b8a6"/>
  <rect x="872" y="716" width="512" height="34" rx="17" fill="#fee2e2"/><rect x="872" y="716" width="144" height="34" rx="17" fill="#ef4444"/>
  <text x="872" y="528" font-family="Segoe UI, Arial, sans-serif" font-size="22" fill="#334155">Measured adoption</text>
  <text x="872" y="616" font-family="Segoe UI, Arial, sans-serif" font-size="22" fill="#334155">Human review coverage</text>
  <text x="872" y="704" font-family="Segoe UI, Arial, sans-serif" font-size="22" fill="#334155">Unexplained overrides</text>
</svg>
