<svg xmlns="http://www.w3.org/2000/svg" width="1600" height="1000" viewBox="0 0 1600 1000" role="img" aria-label="Power BI reporting pack screenshot">
  <rect width="1600" height="1000" fill="#f8fafc"/>
  <rect x="56" y="48" width="1488" height="904" rx="28" fill="#ffffff" stroke="#cbd5e1"/>
  <text x="96" y="116" font-family="Segoe UI, Arial, sans-serif" font-size="44" font-weight="700" fill="#0f172a">TOPdesk Power BI Evidence Pack</text>
  <text x="96" y="164" font-family="Segoe UI, Arial, sans-serif" font-size="24" fill="#475569">Operational KPIs with lineage, filters, reconciliation notes, and actionable findings.</text>
  <rect x="96" y="220" width="290" height="150" rx="14" fill="#dbeafe"/><text x="124" y="270" font-family="Segoe UI, Arial, sans-serif" font-size="25" fill="#1e3a8a">Open backlog</text><text x="124" y="330" font-family="Segoe UI, Arial, sans-serif" font-size="54" font-weight="700" fill="#1d4ed8">1,284</text>
  <rect x="426" y="220" width="290" height="150" rx="14" fill="#ccfbf1"/><text x="454" y="270" font-family="Segoe UI, Arial, sans-serif" font-size="25" fill="#115e59">SLA in target</text><text x="454" y="330" font-family="Segoe UI, Arial, sans-serif" font-size="54" font-weight="700" fill="#0f766e">91%</text>
  <rect x="756" y="220" width="290" height="150" rx="14" fill="#fef3c7"/><text x="784" y="270" font-family="Segoe UI, Arial, sans-serif" font-size="25" fill="#92400e">Reassignments</text><text x="784" y="330" font-family="Segoe UI, Arial, sans-serif" font-size="54" font-weight="700" fill="#b45309">2.4x</text>
  <rect x="1086" y="220" width="370" height="150" rx="14" fill="#fee2e2"/><text x="1114" y="270" font-family="Segoe UI, Arial, sans-serif" font-size="25" fill="#991b1b">Data quality issues</text><text x="1114" y="330" font-family="Segoe UI, Arial, sans-serif" font-size="54" font-weight="700" fill="#dc2626">146</text>
  <rect x="96" y="438" width="790" height="380" rx="18" fill="#f8fafc" stroke="#cbd5e1"/>
  <text x="128" y="494" font-family="Segoe UI, Arial, sans-serif" font-size="30" font-weight="700" fill="#0f172a">Incident lifecycle trend</text>
  <polyline points="150,738 260,700 370,716 480,638 590,654 700,574 810,530" fill="none" stroke="#2563eb" stroke-width="8" stroke-linecap="round" stroke-linejoin="round"/>
  <polyline points="150,760 260,736 370,742 480,710 590,692 700,670 810,626" fill="none" stroke="#14b8a6" stroke-width="8" stroke-linecap="round" stroke-linejoin="round"/>
  <path d="M150 560h680M150 620h680M150 680h680M150 740h680" stroke="#e2e8f0"/>
  <rect x="940" y="438" width="516" height="380" rx="18" fill="#f8fafc" stroke="#cbd5e1"/>
  <text x="972" y="494" font-family="Segoe UI, Arial, sans-serif" font-size="30" font-weight="700" fill="#0f172a">Decision-ready findings</text>
  <text x="972" y="560" font-family="Segoe UI, Arial, sans-serif" font-size="24" fill="#0f172a">1. Reduce reassignment loops in Workplace</text>
  <text x="972" y="610" font-family="Segoe UI, Arial, sans-serif" font-size="24" fill="#0f172a">2. Clean legacy categories before AI routing</text>
  <text x="972" y="660" font-family="Segoe UI, Arial, sans-serif" font-size="24" fill="#0f172a">3. Align SLA filters with management KPI</text>
  <text x="972" y="710" font-family="Segoe UI, Arial, sans-serif" font-size="24" fill="#0f172a">4. Add owner for reopen investigation</text>
  <text x="972" y="760" font-family="Segoe UI, Arial, sans-serif" font-size="24" fill="#0f172a">5. Reconcile OData field catalog drift</text>
</svg>
